HIERARCHY
ROOT Hips
{
	OFFSET	0.00	0.00	0.00
	CHANNELS 6 Xposition Yposition Zposition Zrotation Xrotation Yrotation
	JOINT LeftUpLeg
	{
		OFFSET	 0.126116	-0.014019	-0.065224
		CHANNELS 3 Zrotation Xrotation Yrotation
		JOINT LeftLeg
		{
			OFFSET	 0.000000	 0.000000	 0.569914
			CHANNELS 3 Zrotation Xrotation Yrotation
			JOINT LeftFoot
			{
				OFFSET	 0.000000	 0.000000	 0.544423
				CHANNELS 3 Zrotation Xrotation Yrotation
				JOINT LeftToeBase
				{
					OFFSET	 0.000000	 0.000000	 0.207117
					CHANNELS 3 Zrotation Xrotation Yrotation
					End Site
					{
						OFFSET	 0.000000	 0.000000	 0.207117
					}
				}
			}
		}
	}
	JOINT RightUpLeg
	{
		OFFSET	-0.124023	-0.008373	-0.065224
		CHANNELS 3 Zrotation Xrotation Yrotation
		JOINT RightLeg
		{
			OFFSET	 0.000000	 0.000000	 0.570047
			CHANNELS 3 Zrotation Xrotation Yrotation
			JOINT RightFoot
			{
				OFFSET	 0.000000	 0.000000	 0.544354
				CHANNELS 3 Zrotation Xrotation Yrotation
				JOINT RightToeBase
				{
					OFFSET	 0.000000	 0.000000	 0.207540
					CHANNELS 3 Zrotation Xrotation Yrotation
					End Site
					{
						OFFSET	 0.000000	 0.000000	 0.207540
					}
				}
			}
		}
	}
	JOINT Spine
	{
		OFFSET	 0.000184	-0.007763	 0.117403
		CHANNELS 3 Zrotation Xrotation Yrotation
		JOINT Spine1
		{
			OFFSET	 0.000000	 0.000000	 0.137269
			CHANNELS 3 Zrotation Xrotation Yrotation
			JOINT Spine2
			{
				OFFSET	 0.000000	 0.000000	 0.156879
				CHANNELS 3 Zrotation Xrotation Yrotation
				JOINT LeftShoulder
				{
					OFFSET	 0.080501	-0.002496	 0.160144
					CHANNELS 3 Zrotation Xrotation Yrotation
					JOINT LeftArm
					{
						OFFSET	 0.000000	 0.000000	 0.164363
						CHANNELS 3 Zrotation Xrotation Yrotation
						JOINT LeftForeArm
						{
							OFFSET	 0.000000	 0.000000	 0.364576
							CHANNELS 3 Zrotation Xrotation Yrotation
							JOINT LeftHand
							{
								OFFSET	 0.000000	 0.000000	 0.360812
								CHANNELS 3 Zrotation Xrotation Yrotation
								JOINT LeftHandIndex1
								{
									OFFSET	 0.000000	 0.000000	 0.086006
									CHANNELS 3 Zrotation Xrotation Yrotation
									JOINT LeftHandIndex2
									{
										OFFSET	 0.000000	 0.000000	 0.047237
										CHANNELS 3 Zrotation Xrotation Yrotation
										JOINT LeftHandIndex3
										{
											OFFSET	-0.004284	-0.000551	 0.038165
											CHANNELS 3 Zrotation Xrotation Yrotation
											End Site
											{
												OFFSET	-0.004284	-0.000551	 0.038165
											}
										}
									}
								}
							}
						}
					}
				}
				JOINT Neck
				{
					OFFSET	 0.000000	 0.000000	 0.176489
					CHANNELS 3 Zrotation Xrotation Yrotation
					JOINT Head
					{
						OFFSET	 0.000000	-0.001747	 0.077940
						CHANNELS 3 Zrotation Xrotation Yrotation
						End Site
						{
							OFFSET	 0.000000	-0.001747	 0.077940
						}
					}
				}
				JOINT RightShoulder
				{
					OFFSET	-0.080363	 0.000306	 0.159706
					CHANNELS 3 Zrotation Xrotation Yrotation
					JOINT RightArm
					{
						OFFSET	 0.000000	 0.000000	 0.164196
						CHANNELS 3 Zrotation Xrotation Yrotation
						JOINT RightForeArm
						{
							OFFSET	 0.000000	 0.000000	 0.365611
							CHANNELS 3 Zrotation Xrotation Yrotation
							JOINT RightHand
							{
								OFFSET	 0.000000	 0.000000	 0.360648
								CHANNELS 3 Zrotation Xrotation Yrotation
								JOINT RightHandIndex1
								{
									OFFSET	 0.000000	 0.000000	 0.069977
									CHANNELS 3 Zrotation Xrotation Yrotation
									JOINT RightHandIndex2
									{
										OFFSET	 0.000000	 0.000000	 0.052305
										CHANNELS 3 Zrotation Xrotation Yrotation
										JOINT RightHandIndex3
										{
											OFFSET	 0.009002	-0.000782	 0.042196
											CHANNELS 3 Zrotation Xrotation Yrotation
											End Site
											{
												OFFSET	 0.009002	-0.000782	 0.042196
											}
										}
									}
								}
							}
						}
					}
				}
			}
		}
	}
}
MOTION
Frames:    5
Frame Time: 0.03333334
-0.717952	-0.006115	 1.272205	-176.290600	-6.615981	 0.169366	 12.202820	 4.751544	 175.814100	-6.372933	-11.149740	-1.524546	-3.897781	 69.809020	-2.757903	-2.385833	 28.452760	 0.000004	-9.796092	 4.971093	-177.745700	 3.658871	-13.310540	 0.894417	 5.344520	 70.898080	-0.759150	 2.384659	 28.388700	-0.000001	 1.767743	 6.734203	-2.904463	 2.275493	 13.505440	 8.514304	-10.926140	-10.832910	-10.970930	-91.776220	 78.527360	-180.000000	-4.087275	 5.473075	 10.246970	-15.612270	-3.185484	-48.863370	-1.797423	-7.025849	-2.298548	-4.130354	 21.526190	 0.991307	-5.167926	 0.731697	 3.519349	-1.378229	 35.397820	-2.634230	-9.392128	 1.535226	 4.706789	-7.446784	-17.837850	-6.806492	 89.782140	 78.203870	 180.000000	 32.553370	 2.814047	-1.672729	 9.471572	-2.420473	 44.915130	 51.172760	 47.692070	-17.800190	 5.716295	 19.173350	-3.684826	 5.027458	 0.246833	-9.377971	-2.350882	 35.473990	 5.254307
-0.717987	-0.006168	 1.271897	-176.229400	-6.658128	 0.189656	 12.036420	 4.367791	 175.720000	-6.323589	-12.223080	-1.658463	-4.775946	 70.485760	-1.907605	-2.385833	 28.452760	 0.000004	-9.681973	 4.982128	-177.744000	 3.596646	-13.768300	 0.909719	 6.038074	 71.368930	-1.442272	 2.384659	 28.388700	-0.000001	 1.498370	 6.795025	-2.999418	 2.046448	 13.133570	 8.638924	-10.823100	-10.506050	-10.950760	-91.776230	 78.527400	-180.000000	-4.313398	 8.122034	 12.512870	-15.746150	-3.638216	-53.945450	-1.742418	-6.928106	-2.323009	-4.130354	 21.526190	 0.991307	-5.167926	 0.731697	 3.519349	-1.378229	 35.397820	-2.634230	-9.355359	 1.499594	 4.802411	-7.400862	-17.659490	-6.993082	 89.782170	 78.203870	 179.999900	 31.319390	 4.405510	-4.059254	 9.713355	-2.640501	 50.385520	 50.988550	 45.130630	-16.920630	 5.716295	 19.173350	-3.684826	 5.027458	 0.246833	-9.377971	-2.350882	 35.473990	 5.254307
-0.718021	-0.006228	 1.271569	-176.176000	-6.704016	 0.204691	 11.883050	 4.014687	 175.619400	-6.285177	-13.261790	-1.787915	-5.701097	 71.142250	-1.000377	-2.385833	 28.452760	 0.000004	-9.578801	 5.003188	-177.731600	 3.542927	-14.238670	 0.926895	 6.730932	 71.849650	-2.130365	 2.384659	 28.388700	-0.000001	 1.223282	 6.860648	-3.080352	 1.807979	 12.749280	 8.742436	-10.724720	-10.188110	-10.924350	-91.776180	 78.527380	-180.000000	-4.567734	 10.964970	 14.636660	-15.933360	-4.052734	-58.728960	-1.697268	-6.838372	-2.343510	-4.130354	 21.526190	 0.991307	-5.167926	 0.731697	 3.519349	-1.378229	 35.397820	-2.634230	-9.322494	 1.467713	 4.886669	-7.359622	-17.501170	-7.158205	 89.782120	 78.203900	 180.000000	 30.034450	 6.119965	-6.260884	 9.962479	-2.828656	 55.610030	 50.590410	 42.582810	-16.015050	 5.716295	 19.173350	-3.684826	 5.027458	 0.246833	-9.377971	-2.350882	 35.473990	 5.254307
-0.718100	-0.006300	 1.271165	-176.130400	-6.768167	 0.138103	 11.871250	 3.719096	 175.554300	-6.338933	-14.274250	-1.935073	-6.670133	 71.815480	 0.040135	-2.385833	 28.452760	 0.000004	-9.531415	 4.989470	-177.611400	 3.564584	-14.856970	 0.971830	 6.985189	 72.369160	-2.415662	 2.384659	 28.388700	-0.000001	 0.924576	 6.959577	-3.021217	 1.548616	 12.313560	 8.731866	-10.637870	-9.893194	-10.833110	-91.776180	 78.527380	-180.000000	-4.870061	 14.310940	 16.812310	-16.211550	-4.402821	-63.629780	-1.721906	-6.832015	-2.355977	-4.130354	 21.526190	 0.991307	-5.167926	 0.731697	 3.519349	-1.378229	 35.397820	-2.634230	-9.293368	 1.424440	 4.878382	-7.334193	-17.392880	-7.158556	 89.782150	 78.203900	 180.000000	 28.770040	 8.282813	-8.506850	 10.235510	-3.013659	 61.112410	 50.451830	 40.254220	-15.069650	 5.716295	 19.173350	-3.684826	 5.027458	 0.246833	-9.377971	-2.350882	 35.473990	 5.254307
-0.718434	-0.006713	 1.269030	-176.004900	-7.034091	-0.182647	 11.860040	 2.521274	 175.126200	-6.628936	-18.816490	-2.625810	-12.766980	 74.696410	 6.534628	-2.385833	 28.452760	 0.000004	-9.223372	 5.152036	-177.026100	 3.609558	-17.631100	 1.161626	 8.613772	 74.972110	-4.134591	 2.384659	 28.388700	-0.000001	-0.637287	 7.370849	-2.637008	 0.138408	 9.989491	 8.410715	-10.171830	-8.395682	-10.266940	-91.776200	 78.527350	-180.000000	-6.029425	 33.479900	 24.149070	-17.443860	-5.414796	-80.061530	-1.896348	-6.817655	-2.394091	-4.130354	 21.526190	 0.991307	-5.167926	 0.731697	 3.519349	-1.378229	 35.397820	-2.634230	-9.101480	 1.141887	 4.757981	-7.180726	-16.851900	-6.906792	 89.782120	 78.203870	 180.000000	 20.289510	 20.589870	-15.613280	 11.468970	-3.579272	 83.175380	 44.890300	 29.127100	-8.135552	 5.716295	 19.173350	-3.684826	 5.027458	 0.246833	-9.377971	-2.350882	 35.473990	 5.254307
